# xmcd CD database file generated by Grip 2.7
# 
# Track frame offsets:
#       150
#       19755
#       39006
#       56429
#       69087
#       89333
#       116170
#       133908
#       148811
#       169116
#       184587
# 
# Disc length: 2593 seconds
# 
# Revision: 3
# Processed by: cddbd v1.4b41PL1 Copyright (c) Steve Scherf et al.
# Submitted via: Grip 2.7
# 
DISCID=910a1f0b
DTITLE=Ron Kraemer and the Hurricanes - Blues From River City
DYEAR=1900
DGENRE=
TTITLE0=Back At The Chicken Shack
TTITLE1=I Can't Lose
TTITLE2=Brazilian Nights
TTITLE3=My Babe
TTITLE4=Work Song
TTITLE5=Leave My Girl Alone
TTITLE6=Letter From Home
TTITLE7=Walkin' To My Baby
TTITLE8=Greasy Gravy
TTITLE9=Don't Lose Your Cool
TTITLE10=I'd Rather Drink Muddy Water
EXTD=
EXTT0=
EXTT1=
EXTT2=
EXTT3=
EXTT4=
EXTT5=
EXTT6=
EXTT7=
EXTT8=
EXTT9=
EXTT10=
PLAYORDER=
